<svg width="50" height="50" viewBox="0 0 50 50" fill="none" xmlns="http://www.w3.org/2000/svg">
<path d="M14.5835 47.9167C13.3474 47.9167 12.139 47.5501 11.1112 46.8633C10.0834 46.1766 9.2823 45.2005 8.80925 44.0584C8.3362 42.9164 8.21243 41.6597 8.45359 40.4473C8.69475 39.235 9.29 38.1213 10.1641 37.2472C11.0382 36.3732 12.1518 35.7779 13.3642 35.5368C14.5766 35.2956 15.8332 35.4194 16.9753 35.8924C18.1173 36.3655 19.0934 37.1665 19.7802 38.1943C20.4669 39.2222 20.8335 40.4305 20.8335 41.6667C20.8335 43.3243 20.175 44.914 19.0029 46.0861C17.8308 47.2582 16.2411 47.9167 14.5835 47.9167ZM14.5835 39.5833C14.1715 39.5833 13.7687 39.7055 13.4261 39.9344C13.0835 40.1633 12.8164 40.4887 12.6587 40.8694C12.5011 41.2501 12.4598 41.669 12.5402 42.0731C12.6206 42.4772 12.819 42.8484 13.1104 43.1398C13.4017 43.4312 13.7729 43.6296 14.1771 43.71C14.5812 43.7903 15.0001 43.7491 15.3808 43.5914C15.7614 43.4337 16.0868 43.1667 16.3157 42.8241C16.5446 42.4815 16.6668 42.0787 16.6668 41.6667C16.6668 41.1141 16.4473 40.5842 16.0566 40.1935C15.6659 39.8028 15.136 39.5833 14.5835 39.5833Z" fill="white"/>
<path d="M37.5 47.9167C36.2639 47.9167 35.0555 47.5501 34.0277 46.8633C32.9999 46.1766 32.1988 45.2005 31.7258 44.0584C31.2527 42.9164 31.1289 41.6597 31.3701 40.4473C31.6113 39.235 32.2065 38.1213 33.0806 37.2472C33.9547 36.3732 35.0683 35.7779 36.2807 35.5368C37.4931 35.2956 38.7497 35.4194 39.8918 35.8924C41.0338 36.3655 42.0099 37.1665 42.6967 38.1943C43.3834 39.2222 43.75 40.4305 43.75 41.6667C43.75 43.3243 43.0915 44.914 41.9194 46.0861C40.7473 47.2582 39.1576 47.9167 37.5 47.9167ZM37.5 39.5833C37.088 39.5833 36.6852 39.7055 36.3426 39.9344C36 40.1633 35.7329 40.4887 35.5753 40.8694C35.4176 41.2501 35.3763 41.669 35.4567 42.0731C35.5371 42.4772 35.7355 42.8484 36.0269 43.1398C36.3182 43.4312 36.6894 43.6296 37.0936 43.71C37.4977 43.7903 37.9166 43.7491 38.2973 43.5914C38.6779 43.4337 39.0033 43.1667 39.2322 42.8241C39.4612 42.4815 39.5833 42.0787 39.5833 41.6667C39.5833 41.1141 39.3638 40.5842 38.9731 40.1935C38.5824 39.8028 38.0525 39.5833 37.5 39.5833Z" fill="white"/>
<path d="M10.4168 43.75H6.25016C5.14509 43.75 4.08529 43.311 3.30388 42.5296C2.52248 41.7482 2.0835 40.6884 2.0835 39.5833V33.3333C2.0835 31.6757 2.74198 30.086 3.91408 28.9139C5.08618 27.7418 6.67589 27.0833 8.3335 27.0833H9.12516L11.5627 22.2083C12.0823 21.1674 12.8822 20.2922 13.8723 19.6812C14.8624 19.0702 16.0034 18.7477 17.1668 18.75H25.3543C27.0114 18.7515 28.6 19.4109 29.771 20.5833L36.271 27.0833H40.5835C42.5267 27.0888 44.3888 27.8632 45.7629 29.2373C47.137 30.6114 47.9113 32.4734 47.9168 34.4167V35.4167C47.9168 35.9692 47.6973 36.4991 47.3066 36.8898C46.9159 37.2805 46.386 37.5 45.8335 37.5C45.281 37.5 44.7511 37.2805 44.3604 36.8898C43.9697 36.4991 43.7502 35.9692 43.7502 35.4167V34.4167C43.7502 33.5768 43.4165 32.7714 42.8227 32.1775C42.2288 31.5836 41.4234 31.25 40.5835 31.25H35.4168C35.1427 31.2516 34.8709 31.199 34.617 31.0954C34.3632 30.9917 34.1323 30.8389 33.9377 30.6458L26.8335 23.5208C26.6388 23.3277 26.408 23.175 26.1541 23.0713C25.9003 22.9676 25.6285 22.9151 25.3543 22.9167H17.1668C16.7786 22.914 16.3973 23.0198 16.066 23.2223C15.7347 23.4247 15.4665 23.7158 15.2918 24.0625L12.271 30.1042C12.0979 30.4477 11.833 30.7367 11.5057 30.9389C11.1784 31.1412 10.8016 31.2488 10.4168 31.25H8.3335C7.78096 31.25 7.25106 31.4695 6.86036 31.8602C6.46966 32.2509 6.25016 32.7808 6.25016 33.3333V39.5833H10.4168C10.9694 39.5833 11.4993 39.8028 11.89 40.1935C12.2807 40.5842 12.5002 41.1141 12.5002 41.6667C12.5002 42.2192 12.2807 42.7491 11.89 43.1398C11.4993 43.5305 10.9694 43.75 10.4168 43.75Z" fill="white"/>
<path d="M35.4165 29.1667H27.0832C25.9781 29.1667 24.9183 28.7277 24.1369 27.9463C23.3555 27.1649 22.9165 26.1051 22.9165 25V20.8333H27.0832L35.4165 29.1667Z" fill="white"/>
<path d="M33.3332 43.75H18.7498C18.1973 43.75 17.6674 43.5305 17.2767 43.1398C16.886 42.7491 16.6665 42.2192 16.6665 41.6667C16.6665 41.1141 16.886 40.5842 17.2767 40.1935C17.6674 39.8028 18.1973 39.5833 18.7498 39.5833H33.3332C33.8857 39.5833 34.4156 39.8028 34.8063 40.1935C35.197 40.5842 35.4165 41.1141 35.4165 41.6667C35.4165 42.2192 35.197 42.7491 34.8063 43.1398C34.4156 43.5305 33.8857 43.75 33.3332 43.75Z" fill="white"/>
<path d="M27.0833 29.1667H20.8333C20.2808 29.1667 19.7509 28.9472 19.3602 28.5565C18.9695 28.1658 18.75 27.6359 18.75 27.0833C18.75 26.5308 18.9695 26.0009 19.3602 25.6102C19.7509 25.2195 20.2808 25 20.8333 25H27.0833C27.6359 25 28.1658 25.2195 28.5565 25.6102C28.9472 26.0009 29.1667 26.5308 29.1667 27.0833C29.1667 27.6359 28.9472 28.1658 28.5565 28.5565C28.1658 28.9472 27.6359 29.1667 27.0833 29.1667Z" fill="white"/>
<path d="M29.75 12.5H18.75C17.9212 12.5 17.1263 12.1708 16.5403 11.5847C15.9542 10.9987 15.625 10.2038 15.625 9.375C15.625 8.5462 15.9542 7.75134 16.5403 7.16529C17.1263 6.57924 17.9212 6.25 18.75 6.25H29.75C30.5788 6.25 31.3737 6.57924 31.9597 7.16529C32.5458 7.75134 32.875 8.5462 32.875 9.375C32.875 10.2038 32.5458 10.9987 31.9597 11.5847C31.3737 12.1708 30.5788 12.5 29.75 12.5Z" fill="white"/>
<path d="M36.4585 16.6667C34.5246 16.6667 32.67 15.8984 31.3025 14.531C29.9351 13.1635 29.1668 11.3089 29.1668 9.375C29.1484 8.41169 29.3233 7.45445 29.6811 6.55987C30.0389 5.66529 30.5725 4.85152 31.2502 4.16667C32.6432 2.8076 34.5123 2.04687 36.4585 2.04688C38.4047 2.04687 40.2738 2.8076 41.6668 4.16667C42.0564 4.55897 42.2741 5.08994 42.2722 5.64278C42.2702 6.19563 42.0487 6.72505 41.6564 7.11459C41.2641 7.50412 40.7332 7.72186 40.1803 7.71991C39.6275 7.71796 39.0981 7.49647 38.7085 7.10417C38.1148 6.53379 37.3235 6.21524 36.5002 6.21524C35.6769 6.21524 34.8855 6.53379 34.2918 7.10417C33.7066 7.69011 33.3779 8.48437 33.3779 9.3125C33.3779 10.1406 33.7066 10.9349 34.2918 11.5208C34.8855 12.0912 35.6769 12.4098 36.5002 12.4098C37.3235 12.4098 38.1148 12.0912 38.7085 11.5208C39.1146 11.1285 39.6599 10.9136 40.2245 10.9234C40.7891 10.9332 41.3266 11.1668 41.7189 11.5729C42.1112 11.979 42.3261 12.5244 42.3164 13.0889C42.3066 13.6535 42.073 14.191 41.6668 14.5833C40.982 15.2611 40.1682 15.7946 39.2737 16.1524C38.3791 16.5103 37.4218 16.6851 36.4585 16.6667Z" fill="white"/>
<path d="M12.021 16.6667C11.0649 16.6772 10.1162 16.4986 9.22953 16.1411C8.34282 15.7835 7.53558 15.2541 6.85429 14.5833C6.46626 14.193 6.24847 13.665 6.24847 13.1146C6.24847 12.5642 6.46626 12.0362 6.85429 11.6458C7.04796 11.4506 7.27838 11.2956 7.53225 11.1898C7.78613 11.084 8.05843 11.0296 8.33345 11.0296C8.60848 11.0296 8.88078 11.084 9.13466 11.1898C9.38853 11.2956 9.61895 11.4506 9.81262 11.6458C10.1013 11.9381 10.4452 12.1702 10.8243 12.3285C11.2034 12.4869 11.6101 12.5685 12.021 12.5685C12.4318 12.5685 12.8385 12.4869 13.2176 12.3285C13.5967 12.1702 13.9406 11.9381 14.2293 11.6458C14.8095 11.0572 15.1347 10.264 15.1347 9.4375C15.1347 8.61103 14.8095 7.81776 14.2293 7.22916C13.9406 6.93689 13.5967 6.70484 13.2176 6.54646C12.8385 6.38809 12.4318 6.30654 12.021 6.30654C11.6101 6.30654 11.2034 6.38809 10.8243 6.54646C10.4452 6.70484 10.1013 6.93689 9.81262 7.22916C9.61895 7.42443 9.38853 7.57942 9.13466 7.68519C8.88078 7.79095 8.60848 7.84541 8.33345 7.84541C8.05843 7.84541 7.78613 7.79095 7.53225 7.68519C7.27838 7.57942 7.04796 7.42443 6.85429 7.22916C6.64282 7.03407 6.47405 6.7973 6.35862 6.53376C6.24319 6.27022 6.18359 5.98562 6.18359 5.69791C6.18359 5.4102 6.24319 5.12561 6.35862 4.86207C6.47405 4.59853 6.64282 4.36175 6.85429 4.16666C7.53826 3.48953 8.3489 2.95375 9.23993 2.58991C10.131 2.22607 11.0849 2.04129 12.0474 2.04613C13.0098 2.05096 13.9619 2.24532 14.8492 2.6181C15.7365 2.99088 16.5417 3.53478 17.2189 4.21875C17.896 4.90271 18.4318 5.71335 18.7956 6.60438C19.1595 7.49541 19.3442 8.44938 19.3394 9.41182C19.3346 10.3743 19.1402 11.3263 18.7674 12.2137C18.3947 13.101 17.8508 13.9062 17.1668 14.5833C16.4893 15.2535 15.6857 15.7827 14.8025 16.1403C13.9192 16.4979 12.9738 16.6768 12.021 16.6667Z" fill="white"/>
</svg>
